<svg xmlns="http://www.w3.org/2000/svg" width="20.341" height="25.998" viewBox="0 0 20.341 25.998">
  <g id="_126486" data-name="126486" transform="translate(0.499 1.5)">
    <path id="Shape" d="M4.934,12.25h-.1a4.324,4.324,0,0,1-3.314-1.436C-.3,8.771.006,5.269.039,4.934A4.805,4.805,0,0,1,2.35.645,5.25,5.25,0,0,1,4.883,0h.08A5.234,5.234,0,0,1,7.5.664a4.8,4.8,0,0,1,2.283,4.27c.033.334.334,3.836-1.478,5.879A4.341,4.341,0,0,1,4.982,12.25Z" transform="translate(4.758 -1)" fill="#6e7faa" stroke="#6e7faa" stroke-miterlimit="10" stroke-width="1"/>
    <path id="Path" d="M19.337,5.855V5.841c0-.038,0-.075,0-.118-.028-.932-.089-3.112-2.133-3.809L17.152,1.9A13.585,13.585,0,0,1,13.245.12a.635.635,0,1,0-.73,1.04,14.663,14.663,0,0,0,4.3,1.963c1.1.391,1.219,1.563,1.252,2.636a.946.946,0,0,0,0,.118,8.546,8.546,0,0,1-.1,1.455,17.326,17.326,0,0,1-8.3,1.93,17.426,17.426,0,0,1-8.3-1.935,8.09,8.09,0,0,1-.1-1.455c0-.038,0-.075,0-.118.033-1.073.155-2.246,1.252-2.636a14.8,14.8,0,0,0,4.3-1.963.635.635,0,1,0-.73-1.04A13.436,13.436,0,0,1,2.186,1.9l-.047.014C.1,2.611.034,4.791.006,5.718a.946.946,0,0,1,0,.118V5.85a7.22,7.22,0,0,0,.24,2.133.6.6,0,0,0,.245.3,17.808,17.808,0,0,0,9.19,2.25,17.862,17.862,0,0,0,9.19-2.25.63.63,0,0,0,.245-.3A7.575,7.575,0,0,0,19.337,5.855Z" transform="translate(0.003 13.468)" fill="#6e7faa" stroke="#6e7faa" stroke-miterlimit="10" stroke-width="1"/>
  </g>
</svg>
