<svg xmlns="http://www.w3.org/2000/svg" width="21" height="21" viewBox="0 0 21 21">
  <path id="Fill_1" data-name="Fill 1" d="M17.778,20H2.222A2.225,2.225,0,0,1,0,17.778V2.222A2.225,2.225,0,0,1,2.222,0H17.778A2.225,2.225,0,0,1,20,2.222V17.778A2.225,2.225,0,0,1,17.778,20ZM2.222,1.111A1.112,1.112,0,0,0,1.111,2.222V17.778a1.112,1.112,0,0,0,1.111,1.111H17.778a1.112,1.112,0,0,0,1.111-1.111V2.222a1.112,1.112,0,0,0-1.111-1.111Zm10,14.445H7.778V13.333H8.889V10H7.778V7.778h3.333v5.555h1.111v2.222Zm-1.111-10H8.889V3.333h2.222V5.555Z" transform="translate(0.5 0.5)" fill="#3dcc8e" stroke="#3dcc8e" stroke-width="1"/>
</svg>
