<svg xmlns="http://www.w3.org/2000/svg" width="88.31" height="21.676" viewBox="0 0 88.31 21.676">
  <g id="Group_40" data-name="Group 40" transform="translate(-84.52 503.123)">
    <path id="Path_2245" data-name="Path 2245" d="M290.8-417.555a5.726,5.726,0,0,0,5.008,5.163,5.35,5.35,0,0,0,5.4-2.532.978.978,0,0,1,1.521-.34.919.919,0,0,1,.216,1.235,7.275,7.275,0,0,1-5.124,3.5,7.392,7.392,0,0,1-5.849-1.345,7.532,7.532,0,0,1-2.955-4.7,8.755,8.755,0,0,1,1.241-6.881,6.894,6.894,0,0,1,5.323-3.146,6.971,6.971,0,0,1,6.2,2.41,7.837,7.837,0,0,1,1.826,4.118,12.314,12.314,0,0,1,.128,1.367,1.022,1.022,0,0,1-1.141,1.158H290.8Zm10.926-1.944a5.439,5.439,0,0,0-5.5-5.271c-2.906.1-5.573,2.688-5.421,5.271Z" transform="translate(-190.745 -71.319)" fill="#00c68e"/>
    <path id="Path_2246" data-name="Path 2246" d="M1063.075-417.622a5.743,5.743,0,0,0,5.125,5.233,5.409,5.409,0,0,0,5.378-2.616.936.936,0,0,1,1.33-.344.931.931,0,0,1,.275,1.345,7.246,7.246,0,0,1-6.517,3.525,7,7,0,0,1-6.475-3.909,8.5,8.5,0,0,1,.689-9.48,7.24,7.24,0,0,1,12.3,1.4,9.123,9.123,0,0,1,.821,3.714.978.978,0,0,1-1.112,1.132h-11.819Zm10.985-1.908a5.7,5.7,0,0,0-2.736-4.554,5.234,5.234,0,0,0-5.764.22,5.822,5.822,0,0,0-2.5,4.333Z" transform="translate(-912.348 -71.289)" fill="#00c68e"/>
    <path id="Path_2247" data-name="Path 2247" d="M521.779-412.672h.418q4.115,0,8.231,0c.523,0,1.046.022,1.568.042a.953.953,0,0,1,.946.935.928.928,0,0,1-.933.939c-.6.024-1.2.04-1.8.04q-5.2.005-10.4,0c-.718,0-1.152-.421-1.081-1.084a1.167,1.167,0,0,1,.266-.577c1.05-1.271,2.115-2.53,3.174-3.794q2.8-3.34,5.593-6.682l1.862-2.222h-.412q-4.411,0-8.821,0a.93.93,0,0,1-.954-1.178.982.982,0,0,1,1-.725c1.06-.005,2.12,0,3.181,0q3.968,0,7.936,0a.987.987,0,0,1,1.1.81,1.006,1.006,0,0,1-.276.84q-3.476,4.14-6.955,8.278-1.749,2.082-3.5,4.165C521.89-412.838,521.857-412.783,521.779-412.672Z" transform="translate(-405.582 -71.007)" fill="#00c68e"/>
    <path id="Path_2248" data-name="Path 2248" d="M763.511-410.324a5.271,5.271,0,0,1-3.74-1.549,5.3,5.3,0,0,1-.792-1.115.951.951,0,0,1,.406-1.343.938.938,0,0,1,1.255.492,2.931,2.931,0,0,0,2.262,1.548,3.919,3.919,0,0,0,3.261-.686,2.644,2.644,0,0,0,.861-2.951,1.754,1.754,0,0,0-1.038-1.12c-.841-.326-1.711-.577-2.567-.865a25.137,25.137,0,0,1-2.524-.882,3.524,3.524,0,0,1-2.075-3.69,4.041,4.041,0,0,1,1.967-3.181,5.552,5.552,0,0,1,6.746.616,5.084,5.084,0,0,1,.744,1.069.864.864,0,0,1-.366,1.208.884.884,0,0,1-1.254-.32c-.76-1.643-3.131-1.892-4.48-1.24a2.467,2.467,0,0,0-1.428,2.6,1.451,1.451,0,0,0,.874,1.224c.752.31,1.537.543,2.312.794s1.6.445,2.367.751a3.919,3.919,0,0,1,2.732,3.748,4.47,4.47,0,0,1-2.338,4.148A5.881,5.881,0,0,1,763.511-410.324Z" transform="translate(-629.919 -71.433)" fill="#00c68e"/>
    <path id="Path_2249" data-name="Path 2249" d="M926.41-481.861c-.314,0-.584,0-.855,0a.935.935,0,0,1-.942-.9.919.919,0,0,1,.889-.945c.291-.017.584,0,.907,0,0-.546,0-1.047,0-1.548s-.01-1.006,0-1.508a.953.953,0,0,1,.946-.971.927.927,0,0,1,.936.97c.013.885,0,1.77,0,2.655v.4h.38c.995,0,1.989-.008,2.983,0a.919.919,0,0,1,.937,1.232.932.932,0,0,1-.915.614c-.994,0-1.989,0-2.983,0h-.375c-.011.111-.026.195-.026.279,0,3.388-.007,6.775,0,10.163a1.978,1.978,0,0,0,2.77,1.853,2.407,2.407,0,0,0,.682-.492.941.941,0,0,1,1.418-.072.939.939,0,0,1-.062,1.4,3.868,3.868,0,0,1-4.215.955,3.863,3.863,0,0,1-2.483-3.637c-.014-2.164,0-4.327,0-6.491C926.41-479.207,926.41-480.506,926.41-481.861Z" transform="translate(-784.844 -14.239)" fill="#00c68e"/>
    <path id="Path_2250" data-name="Path 2250" d="M94.006-501.07a1.247,1.247,0,0,1,.642,1.185c-.015,2.918-.007,5.837-.007,8.755,0,.593-.06.67-.636.831a.8.8,0,0,0-.162.1c0,.625-.009,1.257,0,1.889.008.385-.047.723-.441.9,0,.982-.035,1.945.018,2.9a4.064,4.064,0,0,0,.4,1.084l-.449,1.828H92.243l-.494-1.931a2.464,2.464,0,0,0,.458-1.909c-.014-.655,0-1.31,0-1.984-.357-.143-.415-.432-.4-.776.016-.535.009-1.071,0-1.607a4.221,4.221,0,0,0-.055-.457c-.113-.022-.2-.037-.279-.054a.588.588,0,0,1-.5-.6q0-4.607,0-9.214c0-.437.285-.7.741-.946H85.692a.937.937,0,0,1-1.022-.907.951.951,0,0,1,1.018-.993q7.116,0,14.231,0a.963.963,0,0,1,1.019.967.949.949,0,0,1-1.035.934h-5.9Zm.241,2.047H91.369c-.121.61-.056,8.086.082,8.323.888,0,.677.7.72,1.234h1.26c.1-.958.1-.958.816-1.324Zm.035-.382c0-.263.017-.482,0-.7a.62.62,0,0,0-.631-.587q-.852-.015-1.7,0a.56.56,0,0,0-.582.479,4.8,4.8,0,0,0-.009.806Zm-1.714,12c0,.73-.011,1.438,0,2.146a2.387,2.387,0,0,1-.419,1.783l.381,1.5h.549c.111-.455.227-.9.322-1.344a.449.449,0,0,0-.065-.3,2.132,2.132,0,0,1-.289-1.314c.02-.458,0-.918,0-1.377v-1.085Zm-.411-1.642c0,.348-.007.662,0,.976,0,.078.06.218.1.22.361.02.723.022,1.085.01.037,0,.1-.121.1-.187.01-.334,0-.668,0-1.02Z" transform="translate(0)" fill="#00c68e" stroke="#00c68e" stroke-width="0.3"/>
    <path id="Path_2251" data-name="Path 2251" d="M1316.418-424.476c.137-.113.21-.17.278-.231a6.374,6.374,0,0,1,4.291-1.683.939.939,0,0,1,1.054.883.918.918,0,0,1-.973.965,4.746,4.746,0,0,0-4.641,4.969c-.021,2.775-.005,5.551-.008,8.326a.954.954,0,0,1-.637,1,.916.916,0,0,1-1.2-.7,1.78,1.78,0,0,1-.026-.358q0-7,0-14c0-.711.445-1.164,1.05-1.076a.916.916,0,0,1,.806.892C1316.428-425.178,1316.418-424.867,1316.418-424.476Z" transform="translate(-1149.212 -71.557)" fill="#00c68e"/>
    <path id="Path_2252" data-name="Path 2252" d="M201.218-381.19H200.1v-3.638h1.122Zm-.766-3.29v2.92h.407v-2.92Z" transform="translate(-107.855 -110.395)" fill="#00c68e" stroke="#00c68e" stroke-width="0.1"/>
    <path id="Path_2253" data-name="Path 2253" d="M200.806-410.14a.556.556,0,0,0-.556.556.556.556,0,0,0,.556.556.556.556,0,0,0,.556-.556A.556.556,0,0,0,200.806-410.14Zm0,.77a.214.214,0,0,1-.215-.214.215.215,0,0,1,.215-.215.215.215,0,0,1,.215.215A.214.214,0,0,1,200.8-409.37Z" transform="translate(-107.999 -86.743)" fill="#00c68e" stroke="#00c68e" stroke-width="0.1"/>
    <path id="Path_2254" data-name="Path 2254" d="M200.9-435.25a.555.555,0,0,0-.556.556.555.555,0,0,0,.556.556.555.555,0,0,0,.556-.556A.555.555,0,0,0,200.9-435.25Zm0,.77a.215.215,0,0,1-.215-.215.214.214,0,0,1,.215-.214.214.214,0,0,1,.215.214A.215.215,0,0,1,200.9-434.48Z" transform="translate(-108.083 -63.28)" fill="#00c68e" stroke="#00c68e" stroke-width="0.1"/>
  </g>
</svg>
