<svg xmlns="http://www.w3.org/2000/svg" width="32.024" height="32.029" viewBox="0 0 32.024 32.029">
  <g id="Group_7" data-name="Group 7" transform="translate(0 0)">
    <g id="Group_4" data-name="Group 4" transform="matrix(-0.259, 0.966, -0.966, -0.259, 32.024, 6.767)">
      <g id="Group_6" data-name="Group 6" transform="translate(0 0)">
        <path id="Path_7" data-name="Path 7" d="M25.871,17.674a14.9,14.9,0,0,1-3.214,5.053,14.56,14.56,0,0,1-5.016,3.15,4.107,4.107,0,0,1-4.357-.924L9.273,20.96a4.088,4.088,0,0,1-.853-4.532c.211-.474.44-.937.684-1.384L.3,6.239A1.022,1.022,0,0,1,0,5.517v-4.5A1.022,1.022,0,0,1,1.022,0h4.5A1.022,1.022,0,0,1,6.538,1.022V2.86H8.377A1.022,1.022,0,0,1,9.4,3.882V5.721h1.839a1.022,1.022,0,0,1,0,2.043H8.377A1.022,1.022,0,0,1,7.356,6.743V4.9H5.517A1.022,1.022,0,0,1,4.5,3.882V2.043H2.043v3.05L11.1,14.153a1.022,1.022,0,0,1,.151,1.252,16.533,16.533,0,0,0-.967,1.853,2.033,2.033,0,0,0,.427,2.254l4.012,3.993a2.061,2.061,0,0,0,2.186.463,12.508,12.508,0,0,0,4.3-2.689,12.853,12.853,0,0,0,2.753-4.352,2.029,2.029,0,0,0-.458-2.18l-4.06-4.041a2.057,2.057,0,0,0-2.248-.438,13.26,13.26,0,0,0-1.839.938A1.022,1.022,0,0,1,14.3,9.464a15.312,15.312,0,0,1,2.123-1.083,4.094,4.094,0,0,1,4.474.877l4.06,4.041A4.071,4.071,0,0,1,25.871,17.674Z" fill="#02b898"/>
      </g>
    </g>
    <circle id="Ellipse_1" data-name="Ellipse 1" cx="2.5" cy="2.5" r="2.5" transform="translate(8.973 16.355)" fill="#02b898"/>
  </g>
</svg>
