<svg xmlns="http://www.w3.org/2000/svg" width="27" height="27" viewBox="0 0 27 27">
  <g id="search" transform="translate(-0.133 0.09)">
    <path id="search-2" data-name="search" d="M25.14,27a2.094,2.094,0,0,1-1.468-.615l-7.228-7.229a10.5,10.5,0,1,1,2.738-2.722l7.208,7.209a2,2,0,0,1,.1,2.779c-.012.014-.024.026-.036.038a1.969,1.969,0,0,1-.21.179A1.819,1.819,0,0,1,25.14,27ZM10.515,2.316a8.219,8.219,0,1,0,8.243,8.218A8.24,8.24,0,0,0,10.515,2.316Z" transform="translate(0.133 -0.09)" fill="rgba(0,0,0,0.3)"/>
    <path id="search-3" data-name="search" d="M25.14,27a2.094,2.094,0,0,1-1.468-.615l-7.228-7.229a10.5,10.5,0,1,1,2.738-2.722l7.208,7.209a2,2,0,0,1,.1,2.779c-.012.014-.024.026-.036.038a1.969,1.969,0,0,1-.21.179A1.819,1.819,0,0,1,25.14,27ZM10.515,2.316a8.219,8.219,0,1,0,8.243,8.218A8.24,8.24,0,0,0,10.515,2.316Z" transform="translate(0.133 -0.09)" fill="#9ea5bd"/>
  </g>
</svg>
