<svg xmlns="http://www.w3.org/2000/svg" width="24.165" height="24.521" viewBox="0 0 24.165 24.521">
  <g id="Settings" transform="translate(1.308 -0.251)">
    <g id="_24px_settings-gear" data-name="24px_settings-gear" transform="translate(0 1.251)" opacity="0.8">
      <circle id="Oval" cx="3.071" cy="3.071" r="3.071" transform="translate(7.704 8.189)" fill="none" stroke="#3dcc8e" stroke-linecap="square" stroke-miterlimit="10" stroke-width="2"/>
      <path id="Path" d="M18.965,11.26a8.24,8.24,0,0,0-.192-1.754L21.55,7.4,19.5,3.857,16.286,5.215a8.176,8.176,0,0,0-3.031-1.76L12.823,0H8.728L8.3,3.455a8.176,8.176,0,0,0-3.031,1.76L2.047,3.857,0,7.4l2.778,2.1a8.087,8.087,0,0,0,0,3.507L0,15.118l2.047,3.546,3.217-1.357A8.176,8.176,0,0,0,8.3,19.066l.432,3.455h4.095l.432-3.455a8.176,8.176,0,0,0,3.031-1.76L19.5,18.664l2.047-3.546-2.778-2.1A8.24,8.24,0,0,0,18.965,11.26Z" fill="none" stroke="#3dcc8e" stroke-linecap="square" stroke-miterlimit="10" stroke-width="2"/>
    </g>
  </g>
</svg>
