<svg xmlns="http://www.w3.org/2000/svg" xmlns:xlink="http://www.w3.org/1999/xlink" width="256" height="256" viewBox="0 0 256 256">
  <defs>
    <linearGradient id="linear-gradient" x1="0.125" y1="0.151" x2="0.066" y2="1.427" gradientUnits="objectBoundingBox">
      <stop offset="0" stop-color="#96efa6"/>
      <stop offset="1" stop-color="#26a6b5"/>
    </linearGradient>
    <clipPath id="clip-Artboard_1">
      <rect width="256" height="256"/>
    </clipPath>
  </defs>
  <g id="Artboard_1" data-name="Artboard – 1" clip-path="url(#clip-Artboard_1)">
    <rect width="256" height="256" fill="#fff"/>
    <rect id="Rectangle_499" data-name="Rectangle 499" width="266" height="265" transform="translate(-5 -9)" fill="url(#linear-gradient)"/>
    <g id="Group_3564" data-name="Group 3564" transform="translate(-7576.69 -8.095)">
      <path id="Path_2250" data-name="Path 2250" d="M156.614-488.31c3.567,2.177,4.971,5.046,4.95,9.134-.117,22.489-.056,44.978-.056,67.469,0,4.573-.465,5.167-4.9,6.406a6.132,6.132,0,0,0-1.249.769c0,4.815-.072,9.689.027,14.561.06,2.964-.363,5.574-3.4,6.908,0,7.565-.267,14.99.142,22.378.149,2.687,1.91,5.284,3.1,8.352-1.074,4.368-2.266,9.215-3.463,14.086h-8.736l-3.808-14.883c3.885-4.055,3.644-9.373,3.528-14.708-.11-5.044-.023-10.092-.023-15.288-2.749-1.1-3.2-3.331-3.117-5.98.124-4.124.066-8.254.018-12.381a32.518,32.518,0,0,0-.42-3.518c-.867-.167-1.509-.284-2.148-.415a4.529,4.529,0,0,1-3.845-4.588q-.03-35.5.013-71.007c.007-3.367,2.2-5.432,5.709-7.293h-3.428q-21.479,0-42.958,0c-4.581,0-7.811-2.879-7.877-6.991-.072-4.478,3.1-7.652,7.847-7.655q54.834-.03,109.669,0c4.578,0,7.848,3.183,7.849,7.453,0,4.2-3.3,7.192-7.973,7.194q-21.478.007-42.958,0Zm1.858,15.778H136.3c-.93,4.7-.435,62.315.632,64.136,6.844-.024,5.215,5.412,5.549,9.512h9.707c.8-7.38.8-7.38,6.285-10.205Zm.268-2.94c0-2.023.134-3.712-.031-5.373a4.778,4.778,0,0,0-4.864-4.526q-6.562-.115-13.128,0a4.314,4.314,0,0,0-4.485,3.694,36.971,36.971,0,0,0-.073,6.209ZM145.532-383.02c0,5.629-.088,11.085.026,16.536.1,4.923.286,9.811-3.232,13.739l2.939,11.534H149.5c.856-3.509,1.75-6.917,2.479-10.36a3.458,3.458,0,0,0-.5-2.347c-2.03-3.118-2.386-6.523-2.23-10.129.153-3.53.033-7.072.033-10.609v-8.364Zm-3.169-12.655c0,2.681-.051,5.1.036,7.522.022.6.464,1.682.759,1.7,2.782.153,5.575.166,8.361.079.285-.009.757-.929.772-1.438.08-2.573.037-5.149.037-7.861Z" transform="translate(7557.021 557.068)" fill="#fff" stroke="#fff" stroke-width="0.3"/>
      <path id="Path_2252" data-name="Path 2252" d="M208.739-356.795H200.1v-28.033h8.643Zm-5.9-25.356v22.5h3.138v-22.5Z" transform="translate(7499.943 498.646)" fill="#fff" stroke="#fff" stroke-width="0.1"/>
      <path id="Path_2253" data-name="Path 2253" d="M204.532-410.14a4.284,4.284,0,0,0-4.282,4.287,4.283,4.283,0,0,0,4.282,4.282,4.284,4.284,0,0,0,4.282-4.282A4.285,4.285,0,0,0,204.532-410.14Zm-.025,5.934a1.652,1.652,0,0,1-1.653-1.648,1.654,1.654,0,0,1,1.653-1.653,1.654,1.654,0,0,1,1.653,1.653A1.652,1.652,0,0,1,204.506-404.206Z" transform="translate(7499.867 511.162)" fill="#fff" stroke="#fff" stroke-width="0.1"/>
      <path id="Path_2254" data-name="Path 2254" d="M204.622-435.25a4.28,4.28,0,0,0-4.282,4.281,4.28,4.28,0,0,0,4.282,4.282,4.28,4.28,0,0,0,4.282-4.282A4.28,4.28,0,0,0,204.622-435.25Zm0,5.934a1.654,1.654,0,0,1-1.653-1.653,1.653,1.653,0,0,1,1.653-1.648,1.653,1.653,0,0,1,1.653,1.648A1.654,1.654,0,0,1,204.622-429.315Z" transform="translate(7499.822 523.579)" fill="#fff" stroke="#fff" stroke-width="0.1"/>
      <path id="Path_2250-2" data-name="Path 2250" d="M156.614-488.31c3.567,2.177,4.971,5.046,4.95,9.134-.117,22.489-.056,44.978-.056,67.469,0,4.573-.465,5.167-4.9,6.406a6.132,6.132,0,0,0-1.249.769c0,4.815-.072,9.689.027,14.561.06,2.964-.363,5.574-3.4,6.908,0,7.565-.267,14.99.142,22.378.149,2.687,1.91,5.284,3.1,8.352-1.074,4.368-2.266,9.215-3.463,14.086h-8.736l-3.808-14.883c3.885-4.055,3.644-9.373,3.528-14.708-.11-5.044-.023-10.092-.023-15.288-2.749-1.1-3.2-3.331-3.117-5.98.124-4.124.066-8.254.018-12.381a32.518,32.518,0,0,0-.42-3.518c-.867-.167-1.509-.284-2.148-.415a4.529,4.529,0,0,1-3.845-4.588q-.03-35.5.013-71.007c.007-3.367,2.2-5.432,5.709-7.293h-3.428q-21.479,0-42.958,0c-4.581,0-7.811-2.879-7.877-6.991-.072-4.478,3.1-7.652,7.847-7.655q54.834-.03,109.669,0c4.578,0,7.848,3.183,7.849,7.453,0,4.2-3.3,7.192-7.973,7.194q-21.478.007-42.958,0Zm1.858,15.778H136.3c-.93,4.7-.435,62.315.632,64.136,6.844-.024,5.215,5.412,5.549,9.512h9.707c.8-7.38.8-7.38,6.285-10.205Zm.268-2.94c0-2.023.134-3.712-.031-5.373a4.778,4.778,0,0,0-4.864-4.526q-6.562-.115-13.128,0a4.314,4.314,0,0,0-4.485,3.694,36.971,36.971,0,0,0-.073,6.209ZM145.532-383.02c0,5.629-.088,11.085.026,16.536.1,4.923.286,9.811-3.232,13.739l2.939,11.534H149.5c.856-3.509,1.75-6.917,2.479-10.36a3.458,3.458,0,0,0-.5-2.347c-2.03-3.118-2.386-6.523-2.23-10.129.153-3.53.033-7.072.033-10.609v-8.364Zm-3.169-12.655c0,2.681-.051,5.1.036,7.522.022.6.464,1.682.759,1.7,2.782.153,5.575.166,8.361.079.285-.009.757-.929.772-1.438.08-2.573.037-5.149.037-7.861Z" transform="translate(7557.871 557.068)" fill="#fff" stroke="#fff" stroke-width="0.3"/>
      <path id="Path_2252-2" data-name="Path 2252" d="M208.739-356.795H200.1v-28.033h8.643Zm-5.9-25.356v22.5h3.138v-22.5Z" transform="translate(7500.793 498.646)" fill="#fff" stroke="#fff" stroke-width="0.1"/>
      <path id="Path_2253-2" data-name="Path 2253" d="M204.532-410.14a4.284,4.284,0,0,0-4.282,4.287,4.283,4.283,0,0,0,4.282,4.282,4.284,4.284,0,0,0,4.282-4.282A4.285,4.285,0,0,0,204.532-410.14Zm-.025,5.934a1.652,1.652,0,0,1-1.653-1.648,1.654,1.654,0,0,1,1.653-1.653,1.654,1.654,0,0,1,1.653,1.653A1.652,1.652,0,0,1,204.506-404.206Z" transform="translate(7500.717 511.162)" fill="#fff" stroke="#fff" stroke-width="0.1"/>
      <path id="Path_2254-2" data-name="Path 2254" d="M204.622-435.25a4.28,4.28,0,0,0-4.282,4.281,4.28,4.28,0,0,0,4.282,4.282,4.28,4.28,0,0,0,4.282-4.282A4.28,4.28,0,0,0,204.622-435.25Zm0,5.934a1.654,1.654,0,0,1-1.653-1.653,1.653,1.653,0,0,1,1.653-1.648,1.653,1.653,0,0,1,1.653,1.648A1.654,1.654,0,0,1,204.622-429.315Z" transform="translate(7500.672 523.579)" fill="#fff" stroke="#fff" stroke-width="0.1"/>
    </g>
  </g>
</svg>
